<svg width="200" height="200" viewBox="0 0 200 200" fill="none" xmlns="http://www.w3.org/2000/svg">
    <path d="M102.836 183.21L75.4814 167.682L59.3572 133.755L57.3731 129.575L38.1276 146.178L17 134.1L46.8093 108.063L19.2586 51.0873L46.4328 66.4743L60.016 96.3698L75.1049 83.1631L87.2137 90.0802L96.2404 95.2405L86.0766 104.205L70.5798 117.874L74.1482 125.105L102.836 183.21Z" fill="#717FAA" stroke="black" stroke-width="0.2" stroke-linecap="round" stroke-linejoin="round"/>
    <path d="M156.227 60.1454L130.574 82.7867L90.0598 106.479L70.5791 117.874L86.0758 104.205L96.2397 95.2405L156.227 60.1454Z" fill="#8E9BCF" stroke="black" stroke-width="0.2" stroke-linecap="round" stroke-linejoin="round"/>
    <path d="M156.227 60.1454L96.24 95.2406L87.2133 90.0802L75.1045 83.1632L103.651 66.4665L118.434 57.8162L135.099 48.068L156.227 60.1454Z" fill="#B1C0E9" stroke="black" stroke-width="0.2" stroke-linecap="round" stroke-linejoin="round"/>
    <path d="M106.42 31.3791L91.041 40.3745L46.433 66.4743L19.2588 51.0873L79.2538 16L106.42 31.3791Z" fill="#B1C0E9" stroke="black" stroke-width="0.2" stroke-linecap="round" stroke-linejoin="round"/>
    <path d="M59.3575 133.755L38.1279 146.178L57.3734 129.575L59.3575 133.755Z" fill="#8E9BCF" stroke="black" stroke-width="0.2" stroke-linecap="round" stroke-linejoin="round"/>
    <path d="M103.652 66.4664L93.2998 45.0408L92.1704 42.7037L91.049 40.3745L91.0333 40.3588L79.2617 16L79.4107 16.0863L80.7675 16.847" stroke="black" stroke-width="0.2" stroke-linecap="round" stroke-linejoin="round" stroke-dasharray="0.8 1.6"/>
    <path d="M86.0767 104.197L76.9951 99.0128L87.2139 90.0802" stroke="black" stroke-width="0.2" stroke-linecap="round" stroke-linejoin="round" stroke-dasharray="0.8 1.6"/>
    <path d="M152.863 58.224L156.212 60.1454L156.149 60.2081L146.056 69.1094L144.644 70.3642L133.571 80.1281L130.559 82.7867L132.402 86.5119L138.174 98.2364L146.801 115.662L154.024 130.297L156.377 135.002L158.627 139.559L158.674 139.653L162.854 148.13L153.357 142.735L153.247 142.672L150.11 140.892L148.134 139.77L135.492 132.602L127.014 114.745L124.52 109.506L123.273 106.942L119.352 98.6677L117.36 94.4877L98.1148 111.09L90.0605 106.471" stroke="black" stroke-width="0.2" stroke-linecap="round" stroke-linejoin="round" stroke-dasharray="2.06 3.42"/>
    <path d="M118.811 58.6476L120.003 61.2748L135.005 48.1543" stroke="black" stroke-width="0.2" stroke-linecap="round" stroke-linejoin="round" stroke-dasharray="0.8 1.6"/>
    <path d="M118.434 57.8162L103.651 66.4664L75.1047 83.1631L60.0158 96.3699L48.5344 71.0935L47.4521 68.7251L46.4326 66.4743L91.0485 40.3745L99.7693 35.2768L106.42 31.387L106.428 31.3948L107.51 33.7632V33.7711L108.584 36.1395L118.434 57.8162Z" fill="#8E9BCF" stroke="black" stroke-width="0.2" stroke-linecap="round" stroke-linejoin="round"/>
    <path d="M162.83 148.122L102.835 183.21L74.1474 125.105L70.5791 117.874L90.0598 106.479L119.602 89.1939L130.574 82.7866L132.409 86.5118L138.197 98.2363L146.808 115.662V115.67L154.031 130.304L156.352 134.994L158.603 139.551L158.65 139.645L162.83 148.122Z" fill="#8E9BCF" stroke="black" stroke-width="0.2" stroke-linecap="round" stroke-linejoin="round"/>
    <path d="M146.997 115.552L146.291 115.96" stroke="black" stroke-width="0.2" stroke-linecap="round" stroke-linejoin="round"/>
    <path d="M146.283 115.968L146.157 116.039" stroke="black" stroke-width="0.2" stroke-linecap="round" stroke-linejoin="round"/>
    <path d="M19.627 132.72L20.3014 132.328" stroke="black" stroke-width="0.2" stroke-linecap="round" stroke-linejoin="round"/>
    <path d="M22.9678 130.759L73.6616 100.934" stroke="black" stroke-width="0.2" stroke-linecap="round" stroke-linejoin="round" stroke-dasharray="1.58 3.16"/>
    <path d="M74.9951 100.15L75.6774 99.7579" stroke="black" stroke-width="0.2" stroke-linecap="round" stroke-linejoin="round"/>
    <path d="M76.2334 167.305L76.9157 166.913" stroke="black" stroke-width="0.2" stroke-linecap="round" stroke-linejoin="round"/>
    <path d="M79.9746 165.125L87.6132 160.67" stroke="black" stroke-width="0.2" stroke-linecap="round" stroke-linejoin="round" stroke-dasharray="1.81 3.61"/>
    <path d="M89.1426 159.776L89.8249 159.384" stroke="black" stroke-width="0.2" stroke-linecap="round" stroke-linejoin="round"/>
    <path d="M162.745 148.232L147.46 157.126L102.695 183.186L101.628 180.81L100.554 178.442L160.478 143.346L161.67 145.856V145.864L162.745 148.232Z" fill="black"/>
    <path d="M108.788 36.312L93.5026 45.2133L48.7377 71.266L47.6633 68.8976L46.5889 66.5213L106.513 31.4261L107.713 33.9436L108.788 36.312Z" fill="black"/>
    <path d="M142.095 119.897L131.265 122.878L152.29 135.488V148.036L113.376 124.76V114.314L125.179 110.949L136.7 107.663C139.899 106.565 140.425 103.891 139.491 100.887C139.344 100.415 139.171 99.9521 138.974 99.4991C138.532 98.5103 138.007 97.5606 137.405 96.6601C135.178 93.2956 131.861 90.2292 129.1 89.1234C126.653 88.151 124.646 88.7078 124.199 91.9624L119.595 89.2175L113.4 85.5159C113.4 85.4139 113.4 85.312 113.4 85.21C113.441 81.5763 114.278 78.8994 115.909 77.1793C116.267 76.7956 116.667 76.4536 117.101 76.1598C117.362 75.9804 117.638 75.823 117.925 75.6892C118.487 75.4098 119.082 75.2042 119.697 75.0775C120.471 74.9245 121.261 74.8587 122.05 74.8815C122.324 74.8815 122.614 74.8815 122.905 74.9364C124.815 75.1517 126.684 75.6485 128.449 76.4108C130.133 77.1234 131.763 77.9569 133.327 78.9047L134.3 79.5085L134.888 79.885C135.934 80.5594 136.922 81.2862 137.852 82.0652C138.331 82.4495 138.809 82.8494 139.272 83.2651L139.766 83.7043L140.738 84.6218L141.209 85.0924C141.852 85.7355 142.464 86.3942 143.06 87.0844C144.903 89.1901 146.529 91.4759 147.914 93.9074C147.918 93.9254 147.918 93.9442 147.914 93.9623L148.071 94.2289L148.487 95.0131C148.549 95.1073 148.597 95.2092 148.651 95.3112C148.651 95.3739 148.722 95.4366 148.753 95.5072C148.989 95.9699 149.224 96.4405 149.436 96.9189C149.561 97.1777 149.687 97.4522 149.796 97.7031C150.118 98.4874 150.416 99.1932 150.675 99.9304L150.816 100.362L150.934 100.715C150.934 100.801 150.989 100.887 151.012 100.973C151.224 101.648 151.404 102.315 151.561 102.981V103.067C151.608 103.287 151.655 103.499 151.694 103.71L151.835 104.432C151.922 104.918 151.992 105.397 152.055 105.875L152.126 106.597C152.126 106.793 152.165 106.996 152.181 107.193C152.196 107.389 152.181 107.561 152.181 107.742C152.185 107.802 152.185 107.862 152.181 107.922C152.181 108.079 152.181 108.236 152.181 108.385C152.181 108.534 152.181 108.785 152.181 108.981C152.187 110.004 152.119 111.026 151.977 112.039C151.968 112.121 151.955 112.202 151.937 112.282C151.937 112.447 151.883 112.612 151.843 112.769L151.773 113.098C151.773 113.184 151.773 113.263 151.71 113.349C151.678 113.482 151.639 113.613 151.592 113.741C151.592 113.867 151.514 113.992 151.475 114.11L151.365 114.392C151.263 114.631 151.147 114.864 151.02 115.09C150.941 115.231 150.855 115.364 150.769 115.498L150.691 115.608C150.626 115.706 150.556 115.801 150.479 115.89L150.361 116.047L150.063 116.376C149.945 116.502 149.82 116.627 149.687 116.745L149.686 116.744C149.467 116.924 149.467 116.924 149.247 117.105L148.934 117.325C148.682 117.485 148.42 117.629 148.15 117.756L147.82 117.913L147.593 118.007C145.8 118.748 143.964 119.379 142.095 119.897Z" fill="#717FAA" stroke="black" stroke-width="0.2" stroke-linecap="round" stroke-linejoin="round"/>
    <path d="M136.723 107.671L113.407 114.313L138.997 99.4989C140.527 103.059 140.409 106.416 136.723 107.671Z" fill="#8E9BCF" stroke="black" stroke-width="0.2" stroke-linecap="round" stroke-linejoin="round"/>
    <path d="M129.116 89.1234L124.215 91.9624C124.662 88.7078 126.67 88.151 129.116 89.1234Z" fill="#717FAA" stroke="black" stroke-width="0.2" stroke-linecap="round" stroke-linejoin="round"/>
    <path d="M182.782 117.811L172.061 124.015L152.29 135.488L131.28 122.94L142.103 119.968C144.001 119.47 145.869 118.86 147.695 118.141C147.891 118.062 148.071 117.976 148.251 117.89C148.522 117.76 148.784 117.613 149.036 117.45L155.082 113.953L165.811 107.749L182.782 117.811Z" fill="#B1C0E9" stroke="black" stroke-width="0.2" stroke-linecap="round" stroke-linejoin="round"/>
    <path d="M155.27 93.4368L148.698 95.3111L147.93 93.8995L148.243 105.812L152.11 112.086L155.106 113.874" stroke="black" stroke-width="0.2" stroke-linecap="round" stroke-linejoin="round" stroke-dasharray="0.8 1.6"/>
    <path d="M161.851 105.287L161.765 105.24L161.812 105.224" stroke="black" stroke-width="0.2" stroke-linecap="round" stroke-linejoin="round" stroke-dasharray="2.18 3.63"/>
    <path d="M182.782 117.811V130.43L161.341 142.845L155.64 146.146L152.314 148.068V135.449L156.494 133.034L172.062 124.015H172.07L182.782 117.811Z" fill="#8E9BCF" stroke="black" stroke-width="0.2" stroke-linecap="round" stroke-linejoin="round"/>
    <path d="M151.608 103.005C151.451 102.338 151.27 101.664 151.059 100.997C151.27 101.671 151.451 102.338 151.608 103.005Z" fill="#8E9BCF" stroke="black" stroke-width="0.2" stroke-linecap="round" stroke-linejoin="round"/>
    <path d="M151.906 104.456C151.993 104.942 152.063 105.42 152.126 105.899C152.063 105.42 151.993 104.903 151.906 104.456Z" fill="#8E9BCF" stroke="black" stroke-width="0.2" stroke-linecap="round" stroke-linejoin="round"/>
    <path d="M152.126 105.899L152.197 106.62C152.197 106.816 152.236 107.02 152.251 107.216C152.22 106.777 152.181 106.338 152.126 105.899Z" fill="#8E9BCF" stroke="black" stroke-width="0.2" stroke-linecap="round" stroke-linejoin="round"/>
    <path d="M149.483 96.9267C149.274 96.4457 149.046 95.9751 148.801 95.515C148.801 95.4445 148.73 95.3817 148.699 95.319C148.644 95.217 148.597 95.1151 148.534 95.021L148.118 94.2367C148.079 94.174 148.04 94.1112 148.009 94.0485L147.962 93.9701C147.966 93.952 147.966 93.9333 147.962 93.9152C146.576 91.4837 144.95 89.1979 143.107 87.0922C142.511 86.4021 141.899 85.7433 141.256 85.1002L140.786 84.6297L139.743 83.7278L139.249 83.2808C138.786 82.8729 138.307 82.4965 137.829 82.0887C136.872 81.3149 135.884 80.5882 134.865 79.9085C134.669 79.783 134.48 79.6497 134.284 79.532L133.312 78.9282C131.748 77.9804 130.118 77.1469 128.434 76.4343C126.668 75.6721 124.8 75.1752 122.889 74.9599C122.599 74.9599 122.309 74.9128 122.034 74.905C121.245 74.8822 120.456 74.948 119.682 75.101C119.067 75.2277 118.471 75.4333 117.909 75.7127L147.632 58.4749H147.671C148.733 57.7993 149.946 57.3977 151.201 57.3064C151.923 57.2359 152.65 57.2359 153.373 57.3064C156.353 57.5731 159.827 58.8958 163.796 61.2747C167.457 63.4683 170.745 66.2322 173.536 69.4623C176.334 72.6391 178.62 76.2322 180.312 80.1124C180.767 81.1711 181.159 82.2299 181.496 83.2494L150.981 100.73L150.863 100.377L150.722 99.946C150.463 99.2089 150.165 98.4638 149.844 97.7188C149.734 97.46 149.608 97.1855 149.483 96.9267Z" fill="#B1C0E9" stroke="black" stroke-width="0.2" stroke-linecap="round" stroke-linejoin="round"/>
    <path d="M182.782 91.5703C182.787 92.6823 182.692 93.7925 182.5 94.8877C182.355 95.7987 182.058 96.6788 181.622 97.4914C181.038 98.5168 180.19 99.3671 179.167 99.9539L176.281 101.624L165.835 107.663L155.106 113.867L149.06 117.364L149.373 117.145L149.593 116.964C149.669 116.909 149.743 116.848 149.812 116.784C149.946 116.666 150.071 116.541 150.189 116.415L150.487 116.086L150.605 115.929C150.681 115.84 150.752 115.745 150.816 115.647L150.895 115.537C150.981 115.404 151.067 115.27 151.146 115.129C151.273 114.903 151.388 114.67 151.491 114.431L151.601 114.149C151.648 114.029 151.687 113.906 151.718 113.78C151.765 113.647 151.804 113.514 151.836 113.388C151.867 113.263 151.836 113.223 151.899 113.137L151.969 112.808C152.008 112.651 152.032 112.486 152.063 112.322C152.081 112.241 152.094 112.16 152.102 112.078C152.245 111.065 152.313 110.043 152.306 109.02" fill="#8E9BCF"/>
    <path d="M182.782 91.5703C182.787 92.6823 182.692 93.7925 182.5 94.8877C182.355 95.7987 182.058 96.6788 181.622 97.4914C181.038 98.5168 180.19 99.3671 179.167 99.9539L176.281 101.624L165.835 107.663L155.106 113.867L149.06 117.364L149.373 117.145L149.593 116.964C149.669 116.909 149.743 116.848 149.812 116.784C149.946 116.666 150.071 116.541 150.189 116.415L150.487 116.086L150.605 115.929C150.681 115.84 150.752 115.745 150.816 115.647L150.895 115.537C150.981 115.404 151.067 115.27 151.146 115.129C151.273 114.903 151.388 114.67 151.491 114.431L151.601 114.149C151.648 114.029 151.687 113.906 151.718 113.78C151.765 113.647 151.804 113.514 151.836 113.388C151.867 113.263 151.836 113.223 151.899 113.137L151.969 112.808C152.008 112.651 152.032 112.486 152.063 112.322C152.081 112.241 152.094 112.16 152.102 112.078C152.245 111.065 152.313 110.043 152.306 109.02" stroke="black" stroke-width="0.2" stroke-linecap="round" stroke-linejoin="round"/>
    <path d="M114.804 123.858L146.997 105.718" stroke="black" stroke-width="0.2" stroke-linecap="round" stroke-linejoin="round" stroke-dasharray="0.8 1.6"/>
    <path d="M130.552 88.0882L138.92 83.3357" stroke="black" stroke-width="0.2" stroke-linecap="round" stroke-linejoin="round" stroke-dasharray="0.8 1.6"/>
    <path d="M139.437 99.1775L147.93 93.8995" stroke="black" stroke-width="0.2" stroke-linecap="round" stroke-linejoin="round" stroke-dasharray="0.8 1.6"/>
    <path d="M182.75 90.1979C182.706 89.2098 182.604 88.2252 182.444 87.2492C182.295 86.3055 182.093 85.3708 181.841 84.4494C181.731 84.0573 181.621 83.6651 181.495 83.2573L150.98 100.738C150.98 100.825 151.035 100.911 151.059 100.997C151.271 101.672 151.451 102.338 151.608 103.005V103.091C151.655 103.311 151.702 103.522 151.741 103.734C151.78 103.946 151.843 104.212 151.882 104.456C151.968 104.942 152.039 105.42 152.102 105.899C152.165 106.377 152.196 106.777 152.227 107.216C152.227 107.397 152.227 107.577 152.227 107.765C152.231 107.825 152.231 107.885 152.227 107.945C152.227 108.102 152.227 108.259 152.227 108.408C152.227 108.557 152.227 108.808 152.227 109.004C152.234 110.03 152.166 111.055 152.023 112.071C152.015 112.152 152.002 112.233 151.984 112.314C151.984 112.478 151.929 112.643 151.898 112.8C151.867 112.957 151.843 113.02 151.819 113.129C151.796 113.239 151.819 113.294 151.757 113.38C151.694 113.467 151.686 113.639 151.639 113.772C151.608 113.898 151.569 114.021 151.521 114.141C151.521 114.235 151.451 114.329 151.412 114.423C151.312 114.664 151.197 114.897 151.067 115.121C150.988 115.263 150.902 115.396 150.816 115.529L150.737 115.639C150.673 115.738 150.602 115.832 150.525 115.921L150.408 116.078L150.11 116.408C149.992 116.533 149.867 116.651 149.733 116.776L154.917 113.796L176.194 101.617L179.08 99.9461C180.103 99.3593 180.951 98.509 181.535 97.4836C181.971 96.671 182.268 95.7909 182.413 94.8799C182.606 93.7847 182.7 92.6745 182.695 91.5625V91.3508C182.782 90.9743 182.774 90.5822 182.75 90.1979Z" fill="#8E9BCF" stroke="black" stroke-width="0.2" stroke-linecap="round" stroke-linejoin="round"/>
    <path d="M181.496 83.2494V83.2574" stroke="black" stroke-width="0.2" stroke-linecap="round" stroke-linejoin="round"/>
</svg>
