<svg width="200" height="200" viewBox="0 0 200 200" fill="none" xmlns="http://www.w3.org/2000/svg">
    <path d="M51.3389 172.654C52.3115 174.418 53.776 175.862 55.5543 176.81C57.3325 177.758 59.3478 178.168 61.3551 177.992L52.8075 183.431C52.6905 183.51 52.5543 183.556 52.4133 183.564C52.2723 183.571 52.132 183.54 52.0074 183.474C51.8827 183.407 51.7785 183.308 51.7059 183.187C51.6333 183.066 51.5951 182.928 51.5953 182.786L51.3389 172.654Z" fill="black" stroke="black" stroke-width="0.2" stroke-linecap="round" stroke-linejoin="round"/>
    <path d="M87.3079 164.261L62.0071 178.365C59.769 178.39 57.5601 177.856 55.5809 176.811C54.9735 176.485 54.3917 176.113 53.8403 175.7L58.1995 157.827L54.3609 154.572L52.2629 174.317C51.6556 173.692 51.114 173.008 50.6466 172.273L48.3154 143.398L87.3079 164.261Z" fill="#D6844C" stroke="black" stroke-width="0.2" stroke-linecap="round" stroke-linejoin="round"/>
    <path d="M58.1995 157.843L53.8402 175.715C53.2888 175.302 52.7693 174.847 52.2861 174.355L54.3609 154.572L58.1995 157.843Z" fill="#D6844C" stroke="black" stroke-width="0.2" stroke-linecap="round" stroke-linejoin="round"/>
    <path d="M58.2004 157.843L53.8411 175.715L53.8178 175.7L52.2792 174.34L52.2637 174.316L54.3928 154.572L58.2004 157.843Z" fill="#F1A362" stroke="black" stroke-width="0.2" stroke-linecap="round" stroke-linejoin="round"/>
    <path d="M124.055 102.439L113.821 121.57L111.49 125.968L103.315 141.245H103.401C104.671 141.382 105.947 141.444 107.224 141.432C105.755 143.359 104.326 145.317 102.95 147.244C98.622 153.406 94.4726 158.838 90.5718 163.624C90.5486 163.665 90.5226 163.704 90.4941 163.741L90.3775 163.935C89.7816 164.809 88.9598 165.504 87.9997 165.948C86.2249 166.719 84.3004 167.086 82.3661 167.02C77.2764 167.02 70.6015 165.147 64.0354 161.643C61.9967 160.532 60.0527 159.256 58.2231 157.827C56.9012 156.809 55.6353 155.719 54.4311 154.564C52.2054 152.509 50.2755 150.155 48.6964 147.57C48.0577 146.493 47.5812 145.328 47.2822 144.112C47.0168 143.084 47.0765 141.998 47.4531 141.004L47.5464 140.794C47.5475 140.771 47.5475 140.748 47.5464 140.724C47.5436 140.704 47.5436 140.683 47.5464 140.662C49.3025 134.881 51.4316 128.579 54.0037 121.764C54.7807 119.744 55.5578 117.739 56.3348 115.727C56.4436 115.447 56.5602 115.159 56.6845 114.88C59.026 109.041 61.523 103.255 64.1753 97.5203C67.5089 90.2626 71.0444 83.1059 74.7199 76.0891L75.598 76.5631C77.1521 77.4101 78.8072 78.2726 80.4468 79.1585L83.0421 80.5494L121.561 101.149C122.431 101.561 123.239 102.012 124.055 102.439Z" fill="#F1A362" stroke="black" stroke-width="0.2" stroke-linecap="round" stroke-linejoin="round"/>
    <path d="M153.63 71.1238C151.532 75.009 145.813 76.5631 138.33 75.7861L126.161 98.5071L124.056 102.439L113.822 121.57L111.491 125.968L103.316 141.245C96.2449 140.522 87.5885 137.772 78.9243 133.133C76.7253 131.959 74.635 130.716 72.6535 129.426C67.4067 126.114 62.68 122.042 58.6277 117.343C58.3325 116.985 58.0449 116.628 57.773 116.271C57.4078 115.797 57.0581 115.33 56.7395 114.856C53.3982 110.031 52.2248 105.532 53.9343 102.175C53.9518 102.129 53.9726 102.085 53.9965 102.043C54.0431 101.949 54.1053 101.856 54.1597 101.763C54.1693 101.731 54.1823 101.699 54.1985 101.67L54.2452 101.577C56.5763 93.6428 65.5901 73.6026 71.0373 63.26C76.0468 53.7294 82.0813 44.7739 89.0338 36.5526L91.9711 38.1067L94.4265 39.4199L102.36 43.6549H102.415C104.487 44.779 106.587 45.9032 108.717 47.0273C109.913 47.6645 111.102 48.3094 112.299 48.9389L130.171 58.5199L150.716 69.5463L153.63 71.1238Z" fill="#F1A362" stroke="black" stroke-width="0.2" stroke-linecap="round" stroke-linejoin="round"/>
    <path d="M64.9062 159.941L78.901 133.133" stroke="black" stroke-width="0.2" stroke-linecap="round" stroke-linejoin="round"/>
    <path d="M58.6049 117.343L49.1016 146.226" stroke="black" stroke-width="0.2" stroke-linecap="round" stroke-linejoin="round"/>
    <path d="M91.5596 162.272C94.2948 157.151 86.804 147.803 74.8218 141.393C62.8397 134.982 50.9119 133.941 48.1689 139.062" stroke="black" stroke-width="0.2" stroke-linecap="round" stroke-linejoin="round" stroke-dasharray="0.8 1.6"/>
    <path d="M118.523 136.738L118.453 136.879" stroke="black" stroke-width="0.2" stroke-miterlimit="10" stroke-dasharray="2.4 4"/>
    <path d="M113.822 121.57C110.682 117.887 107.099 114.606 103.154 111.802C100.086 109.579 96.8696 107.569 93.5258 105.788C87.2749 102.368 80.5652 99.8638 73.6022 98.3517C72.9184 98.2196 72.2579 98.0953 71.5974 97.9865H71.5508C69.8748 97.7081 68.1824 97.5394 66.4844 97.4814C65.7073 97.4814 64.9303 97.4814 64.2076 97.4814C59.25 97.7067 55.559 99.2375 53.9117 102.144C53.8815 102.185 53.8555 102.229 53.834 102.276" stroke="black" stroke-width="0.2" stroke-linecap="round" stroke-linejoin="round" stroke-dasharray="0.8 1.6"/>
    <path d="M91.5591 162.272C88.8161 167.393 76.8883 166.344 64.9062 159.941C52.924 153.538 45.4254 144.182 48.1451 139.062" stroke="black" stroke-width="0.2" stroke-linecap="round" stroke-linejoin="round"/>
    <path d="M156.715 65.3658L153.607 71.1237C151.509 75.009 145.79 76.5631 138.307 75.7861C131.235 75.0634 122.587 72.3049 113.915 67.6658C107.569 64.346 101.735 60.1271 96.5944 55.1397C95.4995 54.0468 94.462 52.8978 93.4862 51.6974C91.8235 49.7315 90.4403 47.5455 89.3756 45.2012C87.9536 41.9376 87.7515 38.9848 89.0181 36.5992L92.1263 30.8412L95.0714 32.3954C98.8323 31.4007 103.875 31.5561 109.571 32.7839C111.576 33.2268 113.658 33.7941 115.788 34.4856C124.688 37.4622 133.025 41.9118 140.451 47.6489C142.2 49.0165 143.8 50.4152 145.261 51.8139C149.535 55.9246 152.519 60.0973 153.809 63.8117L156.715 65.3658Z" fill="#F1A362" stroke="black" stroke-width="0.2" stroke-linecap="round" stroke-linejoin="round"/>
    <path d="M156.716 65.3764C160.793 57.7556 149.633 43.8372 131.788 34.2889C113.943 24.7405 96.171 23.1779 92.0933 30.7987C88.0156 38.4196 99.1762 52.338 117.021 61.8863C134.866 71.4347 152.638 72.9973 156.716 65.3764Z" fill="#F6CFA6" stroke="black" stroke-width="0.2" stroke-linecap="round" stroke-linejoin="round"/>
    <path d="M112.749 26.754L106.423 38.5263C104.799 41.5568 110.767 49.5994 120.62 54.8445C130.473 60.0896 140.466 60.6102 142.09 57.5875L148.384 45.8384L112.749 26.754Z" fill="#F1A362" stroke="black" stroke-width="0.2" stroke-linecap="round" stroke-linejoin="round"/>
    <path d="M148.431 45.8495C150.366 42.2321 143.951 35.0272 134.101 29.757C124.252 24.4867 114.698 23.1469 112.762 26.7643C110.827 30.3818 117.242 37.5866 127.092 42.8569C136.942 48.1271 146.495 49.4669 148.431 45.8495Z" fill="#F6CFA6" stroke="black" stroke-width="0.2" stroke-linecap="round" stroke-linejoin="round"/>
    <path d="M142.565 29.87L140.483 33.7552L138.152 38.0523L137.196 39.8318L136.963 40.2747C136.473 41.1761 132.945 40.7332 129.324 38.7983C125.703 36.8635 123.372 34.136 123.885 33.2657L124.126 32.8228L125.074 31.0589L127.405 26.7307L129.472 22.8454C128.881 23.9566 131.337 26.4198 134.911 28.3547C138.486 30.2896 141.975 30.9734 142.565 29.87Z" fill="#F1A362" stroke="black" stroke-width="0.2" stroke-linecap="round" stroke-linejoin="round"/>
    <path d="M142.635 29.7456L142.565 29.8699C141.975 30.9733 138.563 30.3051 134.942 28.3702C131.321 26.4353 128.874 23.9721 129.503 22.8609L129.573 22.7366C130.015 21.8464 130.631 21.054 131.385 20.4064C132.139 19.7587 133.015 19.2688 133.962 18.9659C134.908 18.6629 135.906 18.553 136.896 18.6426C137.886 18.7322 138.848 19.0196 139.724 19.4876C140.601 19.9557 141.375 20.5949 142 21.3674C142.626 22.14 143.09 23.0301 143.365 23.9852C143.64 24.9403 143.72 25.9409 143.602 26.9276C143.483 27.9144 143.168 28.8674 142.674 29.7301L142.635 29.7456Z" fill="#F6CFA6" stroke="black" stroke-width="0.2" stroke-linecap="round" stroke-linejoin="round"/>
    <path d="M108.095 35.6823L101.024 36.7857C98.4745 37.1835 96.0597 38.1947 93.9873 39.7323C91.915 41.27 90.2472 43.2881 89.1275 45.6131L63.0652 105.314C63.0015 105.439 62.977 105.58 62.995 105.718C63.0131 105.857 63.0728 105.987 63.1662 106.091L65.6839 108.251C65.7551 108.335 65.8451 108.4 65.9466 108.442C66.048 108.484 66.1579 108.501 66.2672 108.492C66.3765 108.482 66.4821 108.447 66.5752 108.389C66.6684 108.331 66.7464 108.252 66.8028 108.158L93.953 50.6561C95.1494 48.6336 96.7788 46.9012 98.7242 45.5832C100.67 44.2652 102.883 43.3943 105.205 43.0332L113.123 41.7977L108.095 35.6823Z" fill="#F1A362" stroke="black" stroke-width="0.2" stroke-linecap="round" stroke-linejoin="round"/>
    <path d="M94.1084 50.3686L66.624 108.368L68.4656 108.003L98.1957 52.1403C99.0045 50.7835 100.125 49.6388 101.464 48.801C102.803 47.9632 104.322 47.4564 105.896 47.3225L110.357 46.9418L113.123 41.7666L104.909 43.0487C102.681 43.3972 100.557 44.2341 98.6895 45.4996C96.8222 46.765 95.2578 48.4277 94.1084 50.3686Z" fill="black" stroke="black" stroke-width="0.2" stroke-linecap="round" stroke-linejoin="round"/>
    <path d="M153.631 71.1237C151.82 75.9181 149.745 80.9923 147.298 86.2996C144.796 91.739 141.936 97.4348 138.68 103.27C138.292 103.962 137.903 104.724 137.398 105.532C134.523 110.629 130.35 117.801 126.519 124.181C123.543 129.1 120.754 133.506 118.865 136.155L118.764 136.334L118.617 136.622L118.547 136.746C116.798 139.854 112.703 141.408 107.225 141.455C105.927 141.465 104.63 141.397 103.34 141.253L111.522 125.976L113.853 121.578L124.087 102.447L126.193 98.5149L138.362 75.7627C145.814 76.532 151.533 75.0401 153.631 71.1237Z" fill="#D6844C" stroke="black" stroke-width="0.2" stroke-linecap="round" stroke-linejoin="round"/>
    <path d="M171.922 55.5982C172.265 61.2393 172.021 66.901 171.191 72.4914C169.124 87.1078 162.488 107.568 142.215 118.47C137.268 121.097 131.976 123.017 126.495 124.173C121.567 125.31 116.531 125.912 111.475 125.968C101.927 126.167 92.3869 125.313 83.0268 123.42C81.6333 123.155 80.2191 122.868 78.7841 122.557C71.6066 121.063 64.5695 118.96 57.7493 116.271L56.3662 115.703C3.79855 93.6117 29.3092 48.8767 74.1607 57.5642" stroke="black" stroke-width="0.2" stroke-linecap="round" stroke-linejoin="round"/>
    <path d="M137.327 105.4C137.327 105.446 137.374 105.493 137.397 105.532C139.609 109.594 141.231 113.95 142.215 118.47C150.716 159.063 91.8231 184.356 52.3799 183.54H52.0303" stroke="black" stroke-width="0.2" stroke-linecap="round" stroke-linejoin="round"/>
    <path d="M103.292 141.245V141.253L91.1777 156.165L85.4197 163.251L83.5703 165.52" stroke="black" stroke-width="0.2" stroke-linecap="round" stroke-linejoin="round"/>
</svg>
