<svg width="200" height="200" viewBox="0 0 200 200" fill="none" xmlns="http://www.w3.org/2000/svg">
    <path d="M173.441 67.8274V131.595V135.435C173.441 135.699 173.393 135.955 173.361 136.235C173.329 136.515 173.305 136.723 173.273 136.963V137.139C173.233 137.363 173.201 137.587 173.161 137.803C173.121 138.019 173.073 138.331 173.009 138.603C172.945 138.875 172.905 139.123 172.833 139.403C172.761 139.683 172.713 139.915 172.633 140.203C172.553 140.491 172.521 140.627 172.449 140.843L172.393 141.043L172.297 141.339C172.291 141.376 172.277 141.412 172.257 141.443C172.209 141.611 172.153 141.771 172.097 141.931C172.041 142.091 171.961 142.315 171.889 142.507C171.817 142.699 171.697 143.019 171.593 143.307C171.401 143.795 171.185 144.275 170.953 144.747C170.849 144.987 170.729 145.227 170.609 145.467L170.409 145.859L170.161 146.323C170.033 146.563 169.897 146.811 169.753 147.043C169.609 147.275 169.489 147.499 169.353 147.731L169.233 147.923C169.001 148.291 168.769 148.659 168.521 149.019L168.273 149.379L167.689 150.179L167.153 150.907C167.089 150.979 167.033 151.059 166.977 151.131C166.921 151.203 166.721 151.451 166.593 151.603C166.465 151.755 166.401 151.851 166.297 151.971C166.041 152.283 165.777 152.587 165.497 152.899C165.217 153.211 165.137 153.299 164.945 153.499C164.753 153.699 164.577 153.907 164.377 154.107C164.177 154.307 163.905 154.603 163.657 154.851L163.409 155.091L163.241 155.259C163.009 155.491 162.769 155.723 162.529 155.939L162.401 156.067L162.033 156.403C161.913 156.515 161.793 156.627 161.665 156.731C161.537 156.835 161.425 156.955 161.289 157.059C161.041 157.283 160.793 157.499 160.537 157.707C160.281 157.915 160.177 158.011 159.993 158.163C158.617 159.291 157.153 160.371 155.585 161.419L154.929 161.859C154.705 162.009 154.481 162.153 154.257 162.291L153.721 162.619C153.249 162.923 152.753 163.219 152.257 163.515L151.537 163.931C151.281 164.075 151.025 164.227 150.737 164.363C150.209 164.659 149.665 164.947 149.137 165.235C148.433 165.603 147.713 165.963 146.977 166.315C146.297 166.643 145.601 166.963 144.897 167.283L143.793 167.771L142.993 168.107C142.425 168.339 141.857 168.579 141.273 168.795L140.033 169.283V101.627C140.561 101.427 141.081 101.227 141.633 101.019L143.049 100.435L143.169 100.387L144.305 99.8994C146.893 98.773 149.417 97.5044 151.865 96.0994C155.401 94.0803 158.717 91.6995 161.761 88.9954C164.598 86.4966 167.07 83.6125 169.105 80.4274C170.03 78.9683 170.833 77.435 171.505 75.8434C172.293 73.9545 172.862 71.9817 173.201 69.9634C173.297 69.2434 173.385 68.5394 173.441 67.8274Z" fill="#FBE84C" stroke="black" stroke-width="0.2" stroke-linecap="round" stroke-linejoin="round"/>
    <path d="M52.7276 109.363V166.227L52.2796 166.011L51.5276 165.635C51.3276 165.539 51.1356 165.435 50.9356 165.323C50.7356 165.211 50.4636 165.083 50.2396 164.955L49.1916 164.387L48.2076 163.827L47.2556 163.267L46.1676 162.595C45.8636 162.411 45.5676 162.219 45.2796 162.027C44.9916 161.835 44.7276 161.667 44.4796 161.483C44.2316 161.299 43.9276 161.115 43.6796 160.923L43.2556 160.627L42.4556 160.011C42.2316 159.851 42.0076 159.675 41.7836 159.499C41.5596 159.323 41.4236 159.227 41.2476 159.091L40.6316 158.595L40.1196 158.179C39.5596 157.715 39.0263 157.243 38.5196 156.763C38.3036 156.571 38.0956 156.363 37.8796 156.163C37.6636 155.963 37.4716 155.779 37.2716 155.579L36.9036 155.219C36.7836 155.099 36.6556 154.979 36.5436 154.851C36.4676 154.781 36.3955 154.706 36.3276 154.627C36.1996 154.499 36.0796 154.363 35.9596 154.235C35.8396 154.107 35.7036 153.971 35.5916 153.843C35.4796 153.715 35.4076 153.651 35.3276 153.555L34.8796 153.051L34.3116 152.379C33.4836 151.381 32.7091 150.34 31.9916 149.259C31.7036 148.827 31.437 148.395 31.1916 147.963C31.0716 147.779 30.9596 147.587 30.8556 147.395C30.7516 147.203 30.7356 147.187 30.6796 147.083C30.6236 146.979 30.4476 146.667 30.3356 146.459C30.2236 146.251 30.0076 145.843 29.8636 145.515C29.7676 145.323 29.6716 145.123 29.5836 144.931C29.4956 144.739 29.3996 144.539 29.3116 144.339C29.3146 144.315 29.3146 144.291 29.3116 144.267L29.0556 143.643C28.8956 143.238 28.7436 142.83 28.5996 142.419L28.5276 142.203C28.5276 142.107 28.4556 142.003 28.4316 141.907C28.4076 141.811 28.3596 141.707 28.3356 141.611C28.1196 140.931 27.9436 140.251 27.7916 139.571C27.7436 139.355 27.6876 139.139 27.6476 138.915C27.5836 138.563 27.5196 138.203 27.4636 137.843C27.4636 137.635 27.4076 137.435 27.3756 137.227C27.3436 137.019 27.3276 136.779 27.3116 136.555C27.2873 136.399 27.2713 136.241 27.2636 136.083C27.2076 135.339 27.1756 134.603 27.1916 133.867V77.7954C27.1916 77.9474 27.1916 78.0994 27.1916 78.2514C27.1916 78.4034 27.1916 78.4114 27.1916 78.4834V78.5954C27.1962 78.6165 27.1962 78.6383 27.1916 78.6594C27.1916 78.8514 27.1916 79.0354 27.1916 79.2274V79.5394C27.1916 79.6754 27.1916 79.8194 27.1916 79.9554C27.1916 80.0914 27.2396 80.4034 27.2716 80.6274L27.3436 81.0994C27.3436 81.1634 27.3436 81.2194 27.3436 81.2834L27.4636 81.9554C27.4606 82.006 27.4606 82.0568 27.4636 82.1074C27.4636 82.2034 27.5036 82.2914 27.5196 82.3874L27.5676 82.5954C27.5707 82.622 27.5707 82.6488 27.5676 82.6754C27.5676 82.6754 27.5676 82.7314 27.5676 82.7634C27.5686 82.7821 27.5686 82.8008 27.5676 82.8194C27.6236 83.0754 27.6876 83.3474 27.7516 83.6194C27.8236 83.9074 27.9036 84.1874 27.9916 84.4754C28.0796 84.7634 28.1596 85.0114 28.2476 85.2754C28.3356 85.5394 28.4236 85.8034 28.5196 86.0754L28.8316 86.8754C28.835 86.8993 28.835 86.9235 28.8316 86.9474L29.0876 87.5474C29.1756 87.7394 29.2636 87.9314 29.3596 88.1234C29.4556 88.3154 29.4556 88.3314 29.5036 88.4354L29.5516 88.5314L29.6636 88.7474L29.7596 88.9474L29.8716 89.1554L29.9516 89.3234L30.0476 89.4994L30.3276 89.7954C30.4556 90.0354 30.5916 90.2674 30.7276 90.5074L30.9116 90.8194C31.0156 90.9954 31.1196 91.1794 31.2316 91.3554L31.5356 91.8354C31.6396 92.0114 31.7596 92.1874 31.8796 92.3714C35.2316 97.4274 40.0956 101.883 46.0636 105.643L46.1676 105.707L46.8556 106.131L47.6556 106.619C49.2716 107.603 50.9676 108.507 52.7276 109.363Z" fill="#E1C95A" stroke="black" stroke-width="0.2" stroke-miterlimit="10"/>
    <path d="M140.032 120.267V169.211C139.456 169.427 138.872 169.643 138.28 169.851L137.52 170.107C137.272 170.203 137.024 170.291 136.72 170.371C136.048 170.595 135.368 170.819 134.68 171.027C132.912 171.587 131.08 172.099 129.208 172.571L128.024 172.859L127.224 173.051C126.952 173.123 126.68 173.179 126.424 173.243C125.952 173.347 125.464 173.459 124.984 173.555C124.76 173.611 124.536 173.651 124.304 173.691C123.68 173.827 123.056 173.955 122.432 174.067L121.432 174.251L120.392 174.435L120.04 174.491L119.648 174.555C118.923 174.678 118.195 174.79 117.464 174.891V125.955C120.472 125.523 123.459 124.974 126.424 124.307C131.048 123.277 135.595 121.927 140.032 120.267Z" fill="#FBE84C" stroke="black" stroke-width="0.2" stroke-linecap="round" stroke-linejoin="round"/>
    <path d="M173.439 67.8274C173.383 68.5394 173.295 69.2434 173.183 69.9474C172.844 71.9657 172.275 73.9385 171.487 75.8274C170.815 77.419 170.012 78.9523 169.087 80.4114C167.058 83.6011 164.591 86.4906 161.759 88.9954C158.713 91.7027 155.394 94.0862 151.855 96.1074C149.407 97.5124 146.883 98.781 144.295 99.9074L143.159 100.395L143.039 100.443L141.623 101.027C141.111 101.235 140.591 101.435 140.023 101.635L134.823 96.9954L133.903 96.1954L126.135 89.2994L117.463 81.5954L108.783 73.8834L102.607 68.3954L100.055 66.1954L99.8791 66.1074L89.0791 59.8674L78.0551 53.4674L67.0311 47.0674L55.9271 40.7234L48.623 36.5074C52.5507 34.2559 56.6613 32.3397 60.9111 30.7794C65.2065 29.1967 69.603 27.9032 74.0711 26.9074C74.6391 26.7874 75.1991 26.6594 75.7751 26.5474C78.0257 26.0781 80.2924 25.6727 82.5751 25.3314C86.3351 24.7714 90.1191 24.3954 93.8951 24.1874C98.1582 23.9547 102.43 23.9387 106.695 24.1394C110.466 24.3154 114.172 24.6594 117.815 25.1714C120.21 25.5021 122.564 25.9021 124.879 26.3714C129.93 27.3807 134.899 28.7659 139.743 30.5154C143.993 32.0566 148.104 33.9568 152.031 36.1954C155.561 38.1817 158.87 40.5362 161.903 43.2194C164.472 45.498 166.744 48.0918 168.663 50.9394C168.839 51.2034 169.015 51.4754 169.183 51.7394C170.072 53.1546 170.846 54.6395 171.495 56.1794C172.295 58.0922 172.867 60.0927 173.199 62.1394C173.311 62.7954 173.391 63.4594 173.439 64.1154C173.534 65.3509 173.534 66.5919 173.439 67.8274Z" fill="#FDF684" stroke="black" stroke-width="0.2" stroke-linecap="round" stroke-linejoin="round"/>
    <path d="M60.8965 112.811L60.9125 112.819" stroke="black" stroke-width="0.2" stroke-linecap="round" stroke-linejoin="round"/>
    <path d="M117.465 141.339V174.891C116.137 175.083 114.801 175.259 113.465 175.403L112.353 175.515C111.921 175.563 111.489 175.611 111.065 175.643C110.641 175.675 110.201 175.723 109.769 175.755C109.217 175.803 108.649 175.835 108.089 175.875L106.425 175.979L105.121 176.035H104.169L102.961 176.075H101.769H98.3846H97.4566H96.5126L94.9126 176.019H94.6726H94.0326H93.2966L91.5766 175.923C90.7766 175.867 89.9766 175.811 89.1765 175.739L88.6646 175.691L87.0085 175.539L85.2325 175.339L84.2565 175.219C83.0325 175.067 81.8565 174.899 80.6165 174.707C79.9605 174.603 79.3045 174.499 78.6485 174.379L78.1205 174.283C77.7685 174.23 77.4245 174.166 77.0885 174.091L75.9845 173.883L74.5445 173.587L73.1765 173.283L71.6965 172.939L70.2325 172.579L69.3045 172.339C68.6485 172.163 68.0005 171.987 67.3605 171.795L65.9365 171.395L64.5365 170.955C63.6085 170.659 62.6805 170.355 61.7845 170.035L60.5845 169.603C60.0885 169.427 59.5925 169.235 59.1045 169.043C58.2165 168.699 57.3525 168.355 56.4885 167.987L55.2245 167.427C54.3765 167.051 53.5445 166.627 52.7285 166.267V132.675C62.8485 137.603 75.1285 140.859 88.2325 142.067C93.4418 142.548 98.676 142.703 103.905 142.531C105.809 142.459 107.729 142.363 109.649 142.203C112.235 142.006 114.841 141.718 117.465 141.339Z" fill="#E1C95A" stroke="black" stroke-width="0.2" stroke-miterlimit="10"/>
    <path d="M100.271 76.8994L100.119 77.0034L74.591 94.3874L57.655 105.995L57.711 105.883C42.071 98.0994 33.175 88.3314 32.647 78.3714C32.207 69.7074 37.823 59.7394 49.799 51.7874C50.295 51.4594 50.807 51.1314 51.327 50.8034C51.783 50.5154 52.255 50.2274 52.727 49.9474L100.103 76.8114L100.271 76.8994Z" fill="#FDF684" stroke="black" stroke-width="0.2" stroke-linecap="round" stroke-linejoin="round"/>
    <path d="M141.273 168.723C140.865 168.899 140.473 169.051 140.033 169.211" stroke="black" stroke-width="0.2" stroke-linecap="round" stroke-linejoin="round"/>
    <path d="M55.2245 167.395C54.3765 167.027 53.5445 166.595 52.7285 166.235" stroke="black" stroke-width="0.2" stroke-linecap="round" stroke-linejoin="round"/>
    <path d="M73.1675 173.251L71.6875 172.907" stroke="black" stroke-width="0.2" stroke-linecap="round" stroke-linejoin="round"/>
    <path d="M88.656 175.659C88.104 175.619 87.552 175.563 87 175.507" stroke="black" stroke-width="0.2" stroke-linecap="round" stroke-linejoin="round"/>
    <path d="M135.409 116.195C128.85 118.215 122.17 119.818 115.409 120.995L103.105 91.6354L100.312 84.9634L108.025 91.8274L135.409 116.195Z" fill="#FDF684" stroke="black" stroke-width="0.2" stroke-linecap="round" stroke-linejoin="round"/>
    <path d="M117.465 141.339C114.867 141.713 112.262 142.001 109.649 142.203C107.729 142.363 105.809 142.459 103.905 142.531C98.676 142.703 93.4418 142.548 88.2325 142.067C75.1285 140.859 62.8485 137.603 52.7285 132.675L72.6645 119.075L100.273 100.283L117.465 141.339Z" fill="#FDF684" stroke="black" stroke-width="0.2" stroke-linecap="round" stroke-linejoin="round"/>
    <path d="M48.6646 44.9314L48.6406 36.5074" stroke="black" stroke-width="0.2" stroke-linecap="round" stroke-linejoin="round"/>
    <path d="M57.7123 105.883L57.6563 105.995L53.5283 108.851L52.7283 109.363C50.9683 108.507 49.2723 107.603 47.6563 106.643L46.8563 106.155L46.1683 105.731L46.0643 105.667C39.6083 101.427 34.7283 96.7874 31.5363 91.8594L31.2323 91.3794C31.1203 91.2034 31.0163 91.0194 30.9123 90.8434L30.7283 90.5314C30.5923 90.2914 30.4563 90.0594 30.3283 89.8194L30.0163 89.2194C29.7363 88.6754 29.4723 88.1234 29.2163 87.5714C28.9603 87.0194 28.7603 86.4754 28.5603 85.9234C28.4803 85.6994 28.4002 85.4834 28.3282 85.2594C28.1762 84.8194 28.0483 84.3794 27.9203 83.9394C27.8643 83.7154 27.8082 83.4994 27.7442 83.2674L27.6242 82.7314C27.6273 82.7049 27.6273 82.678 27.6242 82.6514C27.6242 82.4834 27.5522 82.3234 27.5202 82.1634C27.5173 82.1128 27.5173 82.0621 27.5202 82.0114L27.4002 81.3394C27.4002 81.1154 27.3282 80.8994 27.2962 80.6834C27.2642 80.4674 27.2402 80.2354 27.2162 80.0114C27.1922 79.7874 27.2162 79.7314 27.2162 79.5954V79.2834C27.2162 79.0914 27.2162 78.9074 27.2162 78.7154C27.2208 78.6943 27.2208 78.6725 27.2162 78.6514V78.5874C27.2162 78.4274 27.2162 78.2674 27.2162 78.0994C27.2162 77.9314 27.2162 77.8594 27.2162 77.7394V77.7954C26.9923 73.6347 27.8902 69.4903 29.8163 65.7954C29.8643 65.6834 29.9283 65.5714 29.9843 65.4514C31.5603 62.4098 33.5617 59.6083 35.9283 57.1314L36.4803 56.5474L36.7043 56.3314C39.0159 53.9922 41.5476 51.8811 44.2643 50.0274C44.282 50.0071 44.3038 49.9908 44.3283 49.9794C45.1763 49.3474 45.9283 48.7874 46.6243 48.3314H46.6723C47.8003 47.5314 48.5843 47.1234 48.6963 47.2434L52.7283 49.9474C52.2563 50.2274 51.7843 50.5154 51.3283 50.8034C50.8083 51.1314 50.2963 51.4594 49.8003 51.7874C37.8003 59.7394 32.2003 69.7074 32.6483 78.3714C33.1763 88.3314 42.0723 98.0994 57.7123 105.883Z" fill="black"/>
    <path d="M140.033 120.267C135.598 121.914 131.054 123.25 126.433 124.267C123.473 124.934 120.486 125.483 117.473 125.915L116.481 123.563L116.425 123.411L115.369 120.995C122.13 119.818 128.81 118.215 135.369 116.195L137.489 118.083L137.785 118.347L140.033 120.267Z" fill="black"/>
    <path d="M100.272 76.8994L52.7442 49.9474L48.6722 47.2114L48.6642 44.9314L48.6562 36.5074L55.9603 40.7234L66.9763 47.0834L78.0003 53.4514L89.0243 59.8114L99.8563 66.0674L99.8723 66.0754L100.04 66.1714L100.272 76.8994Z" fill="#FBE84C" stroke="black" stroke-width="0.2" stroke-linecap="round" stroke-linejoin="round"/>
    <path d="M151.857 96.0914L100.049 66.1635" stroke="black" stroke-width="0.2" stroke-linecap="round" stroke-linejoin="round"/>
    <path d="M161.759 88.9874L155.223 85.2114L144.199 78.8514L133.183 72.4834L122.159 66.1234L111.143 59.7634L100.119 53.4034L89.0954 47.0354L78.0794 40.6754L67.0634 34.3154L60.9434 30.7794" stroke="black" stroke-width="0.2" stroke-linecap="round" stroke-linejoin="round"/>
    <path d="M75.8076 26.5474L78.1676 27.8994L89.1836 34.2594L100.208 40.6274L111.224 46.9954H111.232L122.248 53.3554L133.264 59.7154L144.288 66.0754L155.304 72.4434L166.328 78.8034L169.104 80.4114" stroke="black" stroke-width="0.2" stroke-linecap="round" stroke-linejoin="round"/>
    <path d="M93.9277 24.1874L100.28 27.8514L111.304 34.2194L122.328 40.5794L133.344 46.9474L144.368 53.3074L155.384 59.6674L166.408 66.0274L173.184 69.9474" stroke="black" stroke-width="0.2" stroke-linecap="round" stroke-linejoin="round"/>
    <path d="M117.833 25.1714L122.409 27.8114L133.425 34.1714L144.449 40.5394L155.465 46.8994L166.489 53.2594L171.497 56.1474" stroke="black" stroke-width="0.2" stroke-linecap="round" stroke-linejoin="round"/>
    <path d="M82.615 25.3314L78.159 27.8994L67.063 34.3154L55.959 40.7234" stroke="black" stroke-width="0.2" stroke-linecap="round" stroke-linejoin="round"/>
    <path d="M66.9766 47.0834L78.0806 40.6754L89.1846 34.2594L100.281 27.8514L106.713 24.1394" stroke="black" stroke-width="0.2" stroke-linecap="round" stroke-linejoin="round"/>
    <path d="M78 53.4514L89.096 47.0434L100.2 40.6194L111.304 34.2114L122.408 27.8034L124.896 26.3714" stroke="black" stroke-width="0.2" stroke-linecap="round" stroke-linejoin="round"/>
    <path d="M89.0234 59.8114L100.119 53.3954L111.223 46.9874L122.327 40.5794L133.423 34.1714L139.759 30.5154" stroke="black" stroke-width="0.2" stroke-linecap="round" stroke-linejoin="round"/>
    <path d="M100.049 66.1714L111.145 59.7634L122.249 53.3554L133.345 46.9474L144.449 40.5394L152.033 36.1554" stroke="black" stroke-width="0.2" stroke-linecap="round" stroke-linejoin="round"/>
    <path d="M108.784 73.8514L111.056 72.5394L122.16 66.1234L133.264 59.7154L144.368 53.3074L155.464 46.8994L161.904 43.1794" stroke="black" stroke-width="0.2" stroke-linecap="round" stroke-linejoin="round"/>
    <path d="M169.184 51.7074L166.488 53.2594L155.384 59.6674L144.288 66.0754L133.184 72.4834L122.08 78.8994L117.456 81.5634" stroke="black" stroke-width="0.2" stroke-linecap="round" stroke-linejoin="round"/>
    <path d="M126.136 89.2754L133.104 85.2594L144.2 78.8514L155.304 72.4434L166.408 66.0274L173.2 62.1074" stroke="black" stroke-width="0.2" stroke-linecap="round" stroke-linejoin="round"/>
    <path d="M134.823 96.9955L144.119 91.6195L155.223 85.2115L166.327 78.8035L171.487 75.8195" stroke="black" stroke-width="0.2" stroke-linecap="round" stroke-linejoin="round"/>
    <path d="M140.033 101.627V120.267L137.825 118.307L137.529 118.043L135.409 116.155L107.985 91.7955L100.273 84.9314V76.8995L100.041 66.1715L100.049 66.1635L102.601 68.3635L108.777 73.8515L117.457 81.5635L117.465 81.5715L126.137 89.2755L133.905 96.1715L134.825 96.9955L140.033 101.627Z" fill="#E1C95A" stroke="black" stroke-width="0.2" stroke-miterlimit="10"/>
    <path d="M117.464 125.955V141.339L100.271 100.307V84.9314L103.063 91.6034L115.368 120.963L116.4 123.411L116.456 123.563L116.471 123.603L117.464 125.955Z" fill="#E1C95A" stroke="black" stroke-width="0.2" stroke-miterlimit="10"/>
    <path d="M100.273 76.8994V100.307L72.6645 119.099L52.7285 132.667V109.363L53.4885 108.851L57.6565 105.995L74.5925 94.3874L100.273 76.8994Z" fill="#FBE84C" stroke="black" stroke-width="0.2" stroke-linecap="round" stroke-linejoin="round"/>
    <path d="M45.984 105.667C34.408 113.083 27.624 122.675 27 132.667M53.4 108.851L52.648 109.371M102.984 91.6034C102.056 91.6034 101.12 91.6034 100.184 91.6034C91.5512 91.6233 82.9451 92.5646 74.512 94.4114M139.928 120.267C135.495 121.92 130.95 123.257 126.328 124.267C123.357 124.934 120.368 125.483 117.36 125.915M173.4 132.627C173.138 127.541 171.462 122.629 168.56 118.443C163.448 110.747 154.848 104.427 144.192 99.8594C142.816 100.462 141.395 101.038 139.928 101.587L133.824 96.1954C125.388 93.7462 116.7 92.2699 107.928 91.7954" stroke="black" stroke-width="0.2" stroke-linecap="round" stroke-linejoin="round" stroke-dasharray="0.8 1.6"/>
    <path d="M88.1523 142.067L52.6562 166.227" stroke="black" stroke-width="0.2" stroke-linecap="round" stroke-linejoin="round" stroke-dasharray="0.8 1.6"/>
    <path d="M117.383 174.891L103.823 142.531C105.735 142.467 107.647 142.363 109.567 142.203C112.175 142.006 114.781 141.718 117.383 141.339" stroke="black" stroke-width="0.2" stroke-linecap="round" stroke-linejoin="round" stroke-dasharray="0.8 1.6"/>
    <path d="M139.952 169.211L117.384 149.155L109.568 142.203" stroke="black" stroke-width="0.2" stroke-linecap="round" stroke-linejoin="round" stroke-dasharray="0.8 1.6"/>
    <path d="M72.5842 119.107L60.8322 112.819L60.8162 112.811L53.4082 108.851" stroke="black" stroke-width="0.2" stroke-linecap="round" stroke-linejoin="round" stroke-dasharray="0.8 1.6"/>
</svg>
